<?xml version="1.0" encoding="UTF-8" standalone="no"?>
<svg
   xmlns:dc="http://purl.org/dc/elements/1.1/"
   xmlns:cc="http://creativecommons.org/ns#"
   xmlns:rdf="http://www.w3.org/1999/02/22-rdf-syntax-ns#"
   xmlns:svg="http://www.w3.org/2000/svg"
   xmlns="http://www.w3.org/2000/svg"
   xmlns:sodipodi="http://sodipodi.sourceforge.net/DTD/sodipodi-0.dtd"
   xmlns:inkscape="http://www.inkscape.org/namespaces/inkscape"
   width="512"
   height="512"
   viewBox="0 0 135.46666 135.46667"
   version="1.1"
   id="svg8"
   inkscape:version="1.0.2 (e86c870879, 2021-01-15)"
   sodipodi:docname="tearcarch.svg">
  <defs
     id="defs2" />
  <sodipodi:namedview
     id="base"
     pagecolor="#ffffff"
     bordercolor="#666666"
     borderopacity="1.0"
     inkscape:pageopacity="0.0"
     inkscape:pageshadow="2"
     inkscape:zoom="0.49497475"
     inkscape:cx="342.55852"
     inkscape:cy="449.20074"
     inkscape:document-units="mm"
     inkscape:current-layer="layer1"
     inkscape:document-rotation="0"
     showgrid="false"
     units="px"
     inkscape:window-width="1920"
     inkscape:window-height="1029"
     inkscape:window-x="0"
     inkscape:window-y="0"
     inkscape:window-maximized="1" />
  <metadata
     id="metadata5">
    <rdf:RDF>
      <cc:Work
         rdf:about="">
        <dc:format>image/svg+xml</dc:format>
        <dc:type
           rdf:resource="http://purl.org/dc/dcmitype/StillImage" />
        <dc:title></dc:title>
      </cc:Work>
    </rdf:RDF>
  </metadata>
  <g
     inkscape:label="Layer 1"
     inkscape:groupmode="layer"
     id="layer1">
    <g
       id="g855"
       transform="matrix(3.0161632,0,0,3.0161632,-299.7581,-274.97095)">
      <path
         style="fill:#0080ff;fill-opacity:1;stroke:none;stroke-width:0.265;stroke-linecap:round;stroke-linejoin:round;stroke-miterlimit:4;stroke-dasharray:none;stroke-opacity:1;paint-order:stroke fill markers"
         d="m 101.01888,132.01973 c 0,0 10.8242,-26.42181 18.68607,-38.226477 0.41595,-0.624553 0.77179,-1.258556 1.40625,-1.28521 0.69003,-0.02899 1.20262,0.640726 1.64125,1.264553 8.29609,11.798954 19.74537,38.503044 19.74537,38.503044 0,0 0.63704,1.28 0.35528,1.83606 -0.22077,0.4357 -1.32472,0.62635 -1.32472,0.62635 0,0 -3.4229,-0.85875 -5.15576,-1.18581 -1.90522,-0.35959 -5.75382,-0.85211 -5.75382,-0.85211 0,0 2.35553,-3.60783 0.50949,-8.62494 -3.2145,-8.73626 -15.37236,-10.90237 -14.58191,-9.85429 2.12785,2.82138 -0.60692,8.67315 -2.12136,10.85786 -2.35223,3.39329 -2.0627,7.52293 -2.0627,7.52293 0,0 -3.54241,0.22055 -5.27241,0.58665 -1.43158,0.30295 -4.18554,1.32358 -4.18554,1.32358 0,0 -1.60126,0.0216 -2.00524,-0.54055 -0.38035,-0.52928 0.11975,-1.95164 0.11975,-1.95164 z"
         id="path849"
         sodipodi:nodetypes="ccaccacacssscacac" />
      <path
         style="fill:#0080ff;fill-opacity:1;stroke:none;stroke-width:0.265;stroke-linecap:round;stroke-linejoin:round;stroke-miterlimit:4;stroke-dasharray:none;stroke-opacity:1;paint-order:stroke fill markers"
         d="m 122.67423,132.08173 c 0,0 0.81948,-3.60173 0.66711,-5.41348 -0.17606,-2.09337 -1.80473,-6.03836 -1.80473,-6.03836 0,0 2.53905,2.74946 3.17265,5.47043 0.63923,2.74517 -0.36461,6.13399 -0.36461,6.13399 z"
         id="path851"
         sodipodi:nodetypes="cacscc" />
    </g>
  </g>
</svg>
